<svg xmlns="http://www.w3.org/2000/svg" width="1em" height="1em" viewBox="0 0 24 24"><rect width="24" height="24" fill="none"/><path fill="currentColor" d="M7 14q.425 0 .713-.288T8 13q0-.425-.288-.712T7 12q-.425 0-.712.288T6 13q0 .425.288.713T7 14m0-3q.425 0 .713-.288T8 10q0-.425-.288-.712T7 9q-.425 0-.712.288T6 10q0 .425.288.713T7 11m0-3q.425 0 .713-.288T8 7q0-.425-.288-.712T7 6q-.425 0-.712.288T6 7q0 .425.288.713T7 8m3 6h5v-2h-5zm0-3h8V9h-8zm0-3h8V6h-8zM2 22V4q0-.825.588-1.412T4 2h16q.825 0 1.413.588T22 4v12q0 .825-.587 1.413T20 18H6z"/></svg>